<?xml version="1.0" encoding="UTF-8"?>
<svg id="Layer_1" data-name="Layer 1" xmlns="http://www.w3.org/2000/svg" version="1.1" viewBox="0 0 1920 1080">
  <defs>
    <style>
      .cls-1 {
        fill: #fcfcf9;
      }

      .cls-1, .cls-2 {
        stroke-width: 0px;
      }

      .cls-2 {
        fill: #20808d;
        fill-rule: evenodd;
      }
    </style>
  </defs>
  <rect class="cls-1" width="1920" height="1080"/>
  <path class="cls-2" d="M1095.8,476.6h-37.3v-94.6l-90.9,84.7v-84.7h-15.1v84.7l-90.9-84.7v94.6h-37.3v136.3h37.2v85l91-81v81h15.1v-81l91,81v-85h37.2v-136.3ZM1043.3,416.8v59.8h-64.1l64.1-59.8ZM876.7,416.8l64.1,59.8h-64.1v-59.8ZM839.4,597.8v-106h101.2l-79.1,72.7v33.3h-22ZM876.6,571.1l75.9-69.7v95.3l-75.9,67.5v-93.1ZM1043.4,664.2l-75.9-67.5v-95.3l75.9,69.7v93.1ZM1080.6,597.8h-22v-33.3l-79.1-72.7h101.2v106Z"/>
</svg>